# xmcd CD database file
# Copyright (C) 1993-1996 Ti Kan
#
# Track frame offsets:
# 150
# 15162
# 31785
# 46927
# 63117
# 78407
# 94067
# 108620
# 123720
# 136230
# 153420
# 169225
# 185555
# 200597
# 215782
# 231687
# 249745
# 271405
# 287647
# 298945
# 313537
#
# Disc length: 4488 seconds
#
# Revision: 0
# Processed by: cddbd v1.4b41PL1 Copyright (c) Steve Scherf et al.
# Submitted via: inCDius 1.1b3
#
DISCID=3b118615
DTITLE=Various Artist - Rhythm and Blues - 1972 - Time/Life Music
DYEAR=1900
DGENRE=
TTITLE0=I'll Take You There/The Staple Singers
TTITLE1=Let's Stay Together/Green, Al
TTITLE2=I've Been Lonely For So Long/Knight, Frederick
TTITLE3=Starting All Over Again/Mel and Tim
TTITLE4=Too Late To Turn Back Now/Cornelius Brothers and Sister Rose
TTITLE5=(If Loving You Is Wrong) I Don't Want To Be Right/Ingram, Luther
TTITLE6=I'll Be Around/The Spinners
TTITLE7=Everybody Plays The Fool/The Main Ingredient
TTITLE8=Clean Up Woman/Wright, Betty
TTITLE9=Lean On Me/Withers, Bill
TTITLE10=Oh Girl/The Chi-Lites
TTITLE11=Get On The Good Foot - Part 1/Brown, James
TTITLE12=Do Your Thing/Hayes, Issac
TTITLE13=Freddie's Dead (Theme From "Superfly")/Mayfield, Curtis
TTITLE14=Woman's Gotta Have It/Womack, Bobby
TTITLE15=Day Dreaming/Franklin, Aretha
TTITLE16=Me And Mrs. Jones/Paul, Billy
TTITLE17=Hearsay/The Soul Children
TTITLE18=I Gotcha/Tex, Joe
TTITLE19=I'm Still In Love With You/Green, Al
TTITLE20=In The Rain/The Dramatics
EXTD=
EXTT0=
EXTT1=
EXTT2=
EXTT3=
EXTT4=
EXTT5=
EXTT6=
EXTT7=
EXTT8=
EXTT9=
EXTT10=
EXTT11=
EXTT12=
EXTT13=
EXTT14=
EXTT15=
EXTT16=
EXTT17=
EXTT18=
EXTT19=
EXTT20=
PLAYORDER=
